# xmcd
#
# Track frame offsets:
#	150
#	13377
#	29605
#	42879
#	57184
#	70006
#	83561
#	108524
#	126960
#	143762
#	159012
#	169879
#	181907
#	193644
#	204925
#	218462
#	231559
#	251577
#
# Disc length: 3513 seconds
#
# Revision: 0
# Processed by: cddbd v1.5.2PL0 Copyright (c) Steve Scherf et al.
# Submitted via: SynApp - FreeCDDB Version: 2.2
#
DISCID=f40db712
DTITLE=Boogie Woogie Gang  - 25 Jahre
DYEAR=1989
DGENRE=Boogie Woogie
TTITLE0=Boogie Woogie Gang - Touch Me
TTITLE1=Bei mir bist Du schoen
TTITLE2=Sobbin' Girl
TTITLE3=s' Wonderful
TTITLE4=How long Blues
TTITLE5=Christine
TTITLE6=St. Louis Blues
TTITLE7=The faster the Better
TTITLE8=Dear old Southland
TTITLE9=Walkin' Together
TTITLE10=Shining Cerastar
TTITLE11=Clarinet Wail
TTITLE12=Angry Fingers Boogie
TTITLE13=T aint' nobody Biz-ness
TTITLE14=Moulin a Cafe
TTITLE15=Harmonica Shuffle
TTITLE16=I liassert Kirschen für di eachsen
TTITLE17=Stoptime Boogie
EXTD=
EXTT0=
EXTT1=
EXTT2=
EXTT3=
EXTT4=
EXTT5=
EXTT6=
EXTT7=
EXTT8=
EXTT9=
EXTT10=
EXTT11=
EXTT12=
EXTT13=
EXTT14=
EXTT15=
EXTT16=
EXTT17=
PLAYORDER=
